PERFORMER "Marc Romboy"
TITLE "Essential Mix (2009-03-21) [TMB]"
FILE "Essential Mix_Marc Romboy_2009_03_21.mp3" MP3
  TRACK 01 AUDIO
    PERFORMER "Essential Mix"
    TITLE "Intro"
    INDEX 01 00:00:00
  TRACK 02 AUDIO
    PERFORMER "Juan Maclean"
    TITLE "One Day (Marc Romboy Remix)"
    INDEX 01 02:04:73
  TRACK 03 AUDIO
    PERFORMER "Adam Freeland"
    TITLE "Give It (Marc Romboy Remix)"
    INDEX 01 09:30:30
  TRACK 04 AUDIO
    PERFORMER "Marc Romboy vs. Chelonis R. Jones"
    TITLE "The Beat (Marc Romboy vs. Dimitri Andreas Remix)"
    INDEX 01 14:53:12
  TRACK 05 AUDIO
    PERFORMER "Nick Curly"
    TITLE "Say Something"
    INDEX 01 19:21:66
  TRACK 06 AUDIO
    PERFORMER "Gorge"
    TITLE "Kassiande (Marc Romboy Remix)"
    INDEX 01 26:24:74
  TRACK 07 AUDIO
    PERFORMER "Eyerer & Namito"
    TITLE "Pitch And Toss"
    INDEX 01 32:40:45
  TRACK 08 AUDIO
    PERFORMER "Chelonis R. Jones"
    TITLE "Rehabilitation (Dachshund Remix)"
    INDEX 01 36:07:74
  TRACK 09 AUDIO
    PERFORMER "Namito"
    TITLE "Heat"
    INDEX 01 42:37:60
  TRACK 10 AUDIO
    PERFORMER "Stephan Bodzin vs. Marc Romboy"
    TITLE "Calisto (Namito Edit)"
    INDEX 01 46:43:33
  TRACK 11 AUDIO
    PERFORMER "Gui Boratto"
    TITLE "Atomic Soda"
    INDEX 01 52:15:46
  TRACK 12 AUDIO
    PERFORMER "Gregor Tresher"
    TITLE "The Heartbeat Orchestra"
    INDEX 01 58:00:74
  TRACK 13 AUDIO
    PERFORMER "Oliver Huntemann"
    TITLE "Lousy Night"
    INDEX 01 65:24:24
  TRACK 14 AUDIO
    PERFORMER "Superflu"
    TITLE "Zinnober"
    INDEX 01 69:45:17
  TRACK 15 AUDIO
    PERFORMER "Marc Mirior"
    TITLE "Kraft"
    INDEX 01 77:02:42
  TRACK 16 AUDIO
    PERFORMER "Oliver Huntemann"
    TITLE "Dauerplus"
    INDEX 01 81:29:00
  TRACK 17 AUDIO
    PERFORMER "Xenia Beliayeva"
    TITLE "Analog Effekt"
    INDEX 01 87:46:64
  TRACK 18 AUDIO
    PERFORMER "Paul Ritch"
    TITLE "Split The Line (Dubfire Remix)"
    INDEX 01 93:51:74
  TRACK 19 AUDIO
    PERFORMER "Minimal Man"
    TITLE "Make A Move Part 1 (Marc Romboy Edit)"
    INDEX 01 101:00:010
  TRACK 20 AUDIO
    PERFORMER "Technasia"
    TITLE "Force (Marc Romboy Edit)"
    INDEX 01 109:41:00
  TRACK 21 AUDIO
    PERFORMER "Petar Dundov"
    TITLE "Oasis"
    INDEX 01 114:18:74